<mxfile host="app.diagrams.net" agent="Mozilla/5.0 (Windows NT 10.0; Win64; x64) AppleWebKit/537.36 (KHTML, like Gecko) Chrome/134.0.0.0 Safari/537.36" version="26.1.1">
  <diagram name="Page-1" id="TaaWKufmCiINxwB22ElQ">
    <mxGraphModel dx="934" dy="525" grid="1" gridSize="10" guides="1" tooltips="1" connect="1" arrows="1" fold="1" page="1" pageScale="1" pageWidth="827" pageHeight="1169" math="0" shadow="0">
      <root>
        <mxCell id="0" />
        <mxCell id="1" parent="0" />
        <mxCell id="v7qtOB8DZMsNz9gtIh2f-1" value="Developer local machine" style="verticalAlign=top;align=left;spacingTop=8;spacingLeft=2;spacingRight=12;shape=cube;size=10;direction=south;fontStyle=4;html=1;whiteSpace=wrap;" vertex="1" parent="1">
          <mxGeometry x="350" y="240" width="120" height="80" as="geometry" />
        </mxCell>
        <mxCell id="v7qtOB8DZMsNz9gtIh2f-2" value="&amp;lt;&amp;lt;artifact&amp;gt;&amp;gt;&lt;br&gt;&lt;br&gt;&lt;b&gt;Node&lt;/b&gt;" style="html=1;align=center;verticalAlign=middle;dashed=0;whiteSpace=wrap;" vertex="1" parent="1">
          <mxGeometry x="80" y="110" width="130" height="50" as="geometry" />
        </mxCell>
        <mxCell id="v7qtOB8DZMsNz9gtIh2f-15" style="edgeStyle=orthogonalEdgeStyle;rounded=0;orthogonalLoop=1;jettySize=auto;html=1;exitX=0.5;exitY=0;exitDx=0;exitDy=0;entryX=1;entryY=1;entryDx=0;entryDy=0;dashed=1;" edge="1" parent="1" source="v7qtOB8DZMsNz9gtIh2f-4" target="v7qtOB8DZMsNz9gtIh2f-2">
          <mxGeometry relative="1" as="geometry" />
        </mxCell>
        <mxCell id="v7qtOB8DZMsNz9gtIh2f-4" value="&amp;lt;&amp;lt;artifact&amp;gt;&amp;gt;&lt;br&gt;&lt;span style=&quot;color: rgba(0, 0, 0, 0); font-family: monospace; font-size: 0px; text-align: start; text-wrap-mode: nowrap;&quot;&gt;%3CmxGraphModel%3E%3Croot%3E%3CmxCell%20id%3D%220%22%2F%3E%3CmxCell%20id%3D%221%22%20parent%3D%220%22%2F%3E%3CmxCell%20id%3D%222%22%20value%3D%22%26amp%3Blt%3B%26amp%3Blt%3Bartifact%26amp%3Bgt%3B%26amp%3Bgt%3B%26lt%3Bbr%26gt%3B%26lt%3Bbr%26gt%3B%26lt%3Bb%26gt%3BNode%26lt%3B%2Fb%26gt%3B%22%20style%3D%22html%3D1%3Balign%3Dcenter%3BverticalAlign%3Dmiddle%3Bdashed%3D0%3BwhiteSpace%3Dwrap%3B%22%20vertex%3D%221%22%20parent%3D%221%22%3E%3CmxGeometry%20x%3D%22270%22%20y%3D%22120%22%20width%3D%22130%22%20height%3D%2250%22%20as%3D%22geometry%22%2F%3E%3C%2FmxCell%3E%3C%2Froot%3E%3C%2FmxGraphModel%3E&lt;/span&gt;&lt;br&gt;&lt;b&gt;package manager&lt;/b&gt;" style="html=1;align=center;verticalAlign=middle;dashed=0;whiteSpace=wrap;" vertex="1" parent="1">
          <mxGeometry x="150" y="190" width="130" height="50" as="geometry" />
        </mxCell>
        <mxCell id="v7qtOB8DZMsNz9gtIh2f-13" style="edgeStyle=orthogonalEdgeStyle;rounded=0;orthogonalLoop=1;jettySize=auto;html=1;exitX=0.5;exitY=0;exitDx=0;exitDy=0;entryX=0.5;entryY=1;entryDx=0;entryDy=0;dashed=1;" edge="1" parent="1" source="v7qtOB8DZMsNz9gtIh2f-5" target="v7qtOB8DZMsNz9gtIh2f-6">
          <mxGeometry relative="1" as="geometry" />
        </mxCell>
        <mxCell id="v7qtOB8DZMsNz9gtIh2f-5" value="&amp;lt;&amp;lt;artifact&amp;gt;&amp;gt;&lt;br&gt;&lt;span style=&quot;color: rgba(0, 0, 0, 0); font-family: monospace; font-size: 0px; text-align: start; text-wrap-mode: nowrap;&quot;&gt;%3CmxGraphModel%3E%3Croot%3E%3CmxCell%20id%3D%220%22%2F%3E%3CmxCell%20id%3D%221%22%20parent%3D%220%22%2F%3E%3CmxCell%20id%3D%222%22%20value%3D%22%26amp%3Blt%3B%26amp%3Blt%3Bartifact%26amp%3Bgt%3B%26amp%3Bgt%3B%26lt%3Bbr%26gt%3B%26lt%3Bbr%26gt%3B%26lt%3Bb%26gt%3BNode%26lt%3B%2Fb%26gt%3B%22%20style%3D%22html%3D1%3Balign%3Dcenter%3BverticalAlign%3Dmiddle%3Bdashed%3D0%3BwhiteSpace%3Dwrap%3B%22%20vertex%3D%221%22%20parent%3D%221%22%3E%3CmxGeometry%20x%3D%22270%22%20y%3D%22120%22%20width%3D%22130%22%20height%3D%2250%22%20as%3D%22geometry%22%2F%3E%3C%2FmxCell%3E%3C%2Froot%3E%3C%2FmxGraphModel%3E&lt;/span&gt;&lt;br&gt;&lt;b&gt;IRC package&lt;/b&gt;" style="html=1;align=center;verticalAlign=middle;dashed=0;whiteSpace=wrap;" vertex="1" parent="1">
          <mxGeometry x="80" y="390" width="130" height="50" as="geometry" />
        </mxCell>
        <mxCell id="v7qtOB8DZMsNz9gtIh2f-14" style="edgeStyle=orthogonalEdgeStyle;rounded=0;orthogonalLoop=1;jettySize=auto;html=1;exitX=0.5;exitY=0;exitDx=0;exitDy=0;entryX=0.5;entryY=1;entryDx=0;entryDy=0;dashed=1;" edge="1" parent="1" source="v7qtOB8DZMsNz9gtIh2f-6" target="v7qtOB8DZMsNz9gtIh2f-4">
          <mxGeometry relative="1" as="geometry" />
        </mxCell>
        <mxCell id="v7qtOB8DZMsNz9gtIh2f-6" value="&amp;lt;&amp;lt;artifact&amp;gt;&amp;gt;&lt;br&gt;&lt;span style=&quot;color: rgba(0, 0, 0, 0); font-family: monospace; font-size: 0px; text-align: start; text-wrap-mode: nowrap;&quot;&gt;%3CmxGraphModel%3E%3Croot%3E%3CmxCell%20id%3D%220%22%2F%3E%3CmxCell%20id%3D%221%22%20parent%3D%220%22%2F%3E%3CmxCell%20id%3D%222%22%20value%3D%22%26amp%3Blt%3B%26amp%3Blt%3Bartifact%26amp%3Bgt%3B%26amp%3Bgt%3B%26lt%3Bbr%26gt%3B%26lt%3Bbr%26gt%3B%26lt%3Bb%26gt%3BNode%26lt%3B%2Fb%26gt%3B%22%20style%3D%22html%3D1%3Balign%3Dcenter%3BverticalAlign%3Dmiddle%3Bdashed%3D0%3BwhiteSpace%3Dwrap%3B%22%20vertex%3D%221%22%20parent%3D%221%22%3E%3CmxGeometry%20x%3D%22270%22%20y%3D%22120%22%20width%3D%22130%22%20height%3D%2250%22%20as%3D%22geometry%22%2F%3E%3C%2FmxCell%3E%3C%2Froot%3E%3C%2FmxGraphModel%3E&lt;/span&gt;&lt;br&gt;&lt;b&gt;React library&lt;/b&gt;" style="html=1;align=center;verticalAlign=middle;dashed=0;whiteSpace=wrap;" vertex="1" parent="1">
          <mxGeometry x="150" y="310" width="130" height="50" as="geometry" />
        </mxCell>
        <mxCell id="v7qtOB8DZMsNz9gtIh2f-7" style="edgeStyle=orthogonalEdgeStyle;rounded=0;orthogonalLoop=1;jettySize=auto;html=1;exitX=0.5;exitY=1;exitDx=0;exitDy=0;" edge="1" parent="1" source="v7qtOB8DZMsNz9gtIh2f-5" target="v7qtOB8DZMsNz9gtIh2f-5">
          <mxGeometry relative="1" as="geometry" />
        </mxCell>
        <mxCell id="v7qtOB8DZMsNz9gtIh2f-17" style="edgeStyle=orthogonalEdgeStyle;rounded=0;orthogonalLoop=1;jettySize=auto;html=1;exitX=1;exitY=0.5;exitDx=0;exitDy=0;entryX=0;entryY=0;entryDx=45;entryDy=120;entryPerimeter=0;dashed=1;" edge="1" parent="1" source="v7qtOB8DZMsNz9gtIh2f-4" target="v7qtOB8DZMsNz9gtIh2f-1">
          <mxGeometry relative="1" as="geometry" />
        </mxCell>
        <mxCell id="v7qtOB8DZMsNz9gtIh2f-18" style="edgeStyle=orthogonalEdgeStyle;rounded=0;orthogonalLoop=1;jettySize=auto;html=1;exitX=1;exitY=0.5;exitDx=0;exitDy=0;entryX=0;entryY=0;entryDx=45;entryDy=120;entryPerimeter=0;dashed=1;" edge="1" parent="1" source="v7qtOB8DZMsNz9gtIh2f-6" target="v7qtOB8DZMsNz9gtIh2f-1">
          <mxGeometry relative="1" as="geometry" />
        </mxCell>
        <mxCell id="v7qtOB8DZMsNz9gtIh2f-19" style="edgeStyle=orthogonalEdgeStyle;rounded=0;orthogonalLoop=1;jettySize=auto;html=1;exitX=1;exitY=0.5;exitDx=0;exitDy=0;entryX=0;entryY=0;entryDx=45;entryDy=120;entryPerimeter=0;dashed=1;" edge="1" parent="1" source="v7qtOB8DZMsNz9gtIh2f-2" target="v7qtOB8DZMsNz9gtIh2f-1">
          <mxGeometry relative="1" as="geometry">
            <Array as="points">
              <mxPoint x="320" y="135" />
              <mxPoint x="320" y="285" />
            </Array>
          </mxGeometry>
        </mxCell>
        <mxCell id="v7qtOB8DZMsNz9gtIh2f-21" style="edgeStyle=orthogonalEdgeStyle;rounded=0;orthogonalLoop=1;jettySize=auto;html=1;exitX=1;exitY=0.5;exitDx=0;exitDy=0;entryX=0;entryY=0;entryDx=45;entryDy=120;entryPerimeter=0;dashed=1;" edge="1" parent="1" source="v7qtOB8DZMsNz9gtIh2f-5" target="v7qtOB8DZMsNz9gtIh2f-1">
          <mxGeometry relative="1" as="geometry">
            <Array as="points">
              <mxPoint x="320" y="415" />
              <mxPoint x="320" y="285" />
            </Array>
          </mxGeometry>
        </mxCell>
        <mxCell id="v7qtOB8DZMsNz9gtIh2f-22" value="Web browser" style="verticalAlign=top;align=left;spacingTop=8;spacingLeft=2;spacingRight=12;shape=cube;size=10;direction=south;fontStyle=4;html=1;whiteSpace=wrap;" vertex="1" parent="1">
          <mxGeometry x="610" y="230" width="120" height="80" as="geometry" />
        </mxCell>
        <mxCell id="v7qtOB8DZMsNz9gtIh2f-23" value="Google Cloud" style="verticalAlign=top;align=left;spacingTop=8;spacingLeft=2;spacingRight=12;shape=cube;size=10;direction=south;fontStyle=4;html=1;whiteSpace=wrap;" vertex="1" parent="1">
          <mxGeometry x="238" y="565" width="120" height="80" as="geometry" />
        </mxCell>
        <mxCell id="v7qtOB8DZMsNz9gtIh2f-24" value="&amp;lt;&amp;lt;artifact&amp;gt;&amp;gt;&lt;br&gt;&lt;span style=&quot;color: rgba(0, 0, 0, 0); font-family: monospace; font-size: 0px; text-align: start; text-wrap-mode: nowrap;&quot;&gt;%3CmxGraphModel%3E%3Croot%3E%3CmxCell%20id%3D%220%22%2F%3E%3CmxCell%20id%3D%221%22%20parent%3D%220%22%2F%3E%3CmxCell%20id%3D%222%22%20value%3D%22%26amp%3Blt%3B%26amp%3Blt%3Bartifact%26amp%3Bgt%3B%26amp%3Bgt%3B%26lt%3Bbr%26gt%3B%26lt%3Bbr%26gt%3B%26lt%3Bb%26gt%3BNode%26lt%3B%2Fb%26gt%3B%22%20style%3D%22html%3D1%3Balign%3Dcenter%3BverticalAlign%3Dmiddle%3Bdashed%3D0%3BwhiteSpace%3Dwrap%3B%22%20vertex%3D%221%22%20parent%3D%221%22%3E%3CmxGeometry%20x%3D%22270%22%20y%3D%22120%22%20width%3D%22130%22%20height%3D%2250%22%20as%3D%22geometry%22%2F%3E%3C%2FmxCell%3E%3C%2Froot%3E%3C%2FmxGraphModel%3E&lt;/span&gt;&lt;br&gt;&lt;b&gt;Gemini API&lt;/b&gt;" style="html=1;align=center;verticalAlign=middle;dashed=0;whiteSpace=wrap;" vertex="1" parent="1">
          <mxGeometry x="80" y="490" width="130" height="50" as="geometry" />
        </mxCell>
        <mxCell id="v7qtOB8DZMsNz9gtIh2f-25" style="edgeStyle=orthogonalEdgeStyle;rounded=0;orthogonalLoop=1;jettySize=auto;html=1;exitX=0.5;exitY=1;exitDx=0;exitDy=0;entryX=0;entryY=0;entryDx=45;entryDy=120;entryPerimeter=0;dashed=1;" edge="1" parent="1" source="v7qtOB8DZMsNz9gtIh2f-24" target="v7qtOB8DZMsNz9gtIh2f-23">
          <mxGeometry relative="1" as="geometry" />
        </mxCell>
        <mxCell id="v7qtOB8DZMsNz9gtIh2f-31" style="edgeStyle=orthogonalEdgeStyle;rounded=0;orthogonalLoop=1;jettySize=auto;html=1;exitX=0;exitY=0;exitDx=45;exitDy=120;exitPerimeter=0;endArrow=none;startFill=0;" edge="1" parent="1" source="v7qtOB8DZMsNz9gtIh2f-26" target="v7qtOB8DZMsNz9gtIh2f-23">
          <mxGeometry relative="1" as="geometry" />
        </mxCell>
        <mxCell id="v7qtOB8DZMsNz9gtIh2f-26" value="Internet" style="verticalAlign=top;align=left;spacingTop=8;spacingLeft=2;spacingRight=12;shape=cube;size=10;direction=south;fontStyle=4;html=1;whiteSpace=wrap;" vertex="1" parent="1">
          <mxGeometry x="600" y="560" width="120" height="80" as="geometry" />
        </mxCell>
        <mxCell id="v7qtOB8DZMsNz9gtIh2f-28" style="edgeStyle=orthogonalEdgeStyle;rounded=0;orthogonalLoop=1;jettySize=auto;html=1;exitX=0.5;exitY=1;exitDx=0;exitDy=0;dashed=1;" edge="1" parent="1" source="v7qtOB8DZMsNz9gtIh2f-27" target="v7qtOB8DZMsNz9gtIh2f-22">
          <mxGeometry relative="1" as="geometry" />
        </mxCell>
        <mxCell id="v7qtOB8DZMsNz9gtIh2f-27" value="&amp;lt;&amp;lt;artifact&amp;gt;&amp;gt;&lt;br&gt;&lt;span style=&quot;color: rgba(0, 0, 0, 0); font-family: monospace; font-size: 0px; text-align: start; text-wrap-mode: nowrap;&quot;&gt;%3CmxGraphModel%3E%3Croot%3E%3CmxCell%20id%3D%220%22%2F%3E%3CmxCell%20id%3D%221%22%20parent%3D%220%22%2F%3E%3CmxCell%20id%3D%222%22%20value%3D%22%26amp%3Blt%3B%26amp%3Blt%3Bartifact%26amp%3Bgt%3B%26amp%3Bgt%3B%26lt%3Bbr%26gt%3B%26lt%3Bbr%26gt%3B%26lt%3Bb%26gt%3BNode%26lt%3B%2Fb%26gt%3B%22%20style%3D%22html%3D1%3Balign%3Dcenter%3BverticalAlign%3Dmiddle%3Bdashed%3D0%3BwhiteSpace%3Dwrap%3B%22%20vertex%3D%221%22%20parent%3D%221%22%3E%3CmxGeometry%20x%3D%22270%22%20y%3D%22120%22%20width%3D%22130%22%20height%3D%2250%22%20as%3D%22geometry%22%2F%3E%3C%2FmxCell%3E%3C%2Froot%3E%3C%2FmxGraphModel%3E&lt;/span&gt;&lt;br&gt;&lt;b&gt;JavaScript&lt;/b&gt;" style="html=1;align=center;verticalAlign=middle;dashed=0;whiteSpace=wrap;" vertex="1" parent="1">
          <mxGeometry x="680" y="120" width="130" height="50" as="geometry" />
        </mxCell>
        <mxCell id="v7qtOB8DZMsNz9gtIh2f-29" style="edgeStyle=orthogonalEdgeStyle;rounded=0;orthogonalLoop=1;jettySize=auto;html=1;exitX=0;exitY=0;exitDx=35;exitDy=0;exitPerimeter=0;entryX=0;entryY=0;entryDx=45;entryDy=120;entryPerimeter=0;endArrow=none;startFill=0;" edge="1" parent="1" source="v7qtOB8DZMsNz9gtIh2f-1" target="v7qtOB8DZMsNz9gtIh2f-22">
          <mxGeometry relative="1" as="geometry" />
        </mxCell>
        <mxCell id="v7qtOB8DZMsNz9gtIh2f-30" style="edgeStyle=orthogonalEdgeStyle;rounded=0;orthogonalLoop=1;jettySize=auto;html=1;exitX=0;exitY=0;exitDx=80;exitDy=65;exitPerimeter=0;entryX=0;entryY=0;entryDx=0;entryDy=55;entryPerimeter=0;endArrow=none;startFill=0;" edge="1" parent="1" source="v7qtOB8DZMsNz9gtIh2f-22" target="v7qtOB8DZMsNz9gtIh2f-26">
          <mxGeometry relative="1" as="geometry" />
        </mxCell>
      </root>
    </mxGraphModel>
  </diagram>
</mxfile>
